<?xml version="1.0" standalone="no"?>
<!DOCTYPE svg PUBLIC "-//W3C//DTD SVG 20010904//EN"
 "http://www.w3.org/TR/2001/REC-SVG-20010904/DTD/svg10.dtd">
<svg version="1.0" xmlns="http://www.w3.org/2000/svg"
 width="900.000000pt" height="720.000000pt" viewBox="0 0 900.000000 720.000000"
 preserveAspectRatio="xMidYMid meet">

<g transform="translate(0.000000,720.000000) scale(0.100000,-0.100000)"
fill="#000000" stroke="none">
<path d="M3635 6763 c-182 -240 -331 -442 -333 -448 -3 -11 850 -385 877 -385
6 0 17 10 25 23 69 110 486 818 486 824 0 4 -60 42 -133 84 -465 269 -587 339
-590 339 -1 0 -151 -197 -332 -437z"/>
<path d="M4757 6653 c-24 -37 -140 -216 -257 -397 -116 -181 -214 -335 -217
-341 -2 -8 111 -76 289 -175 161 -89 299 -168 307 -176 12 -11 8 -43 -28 -224
-23 -116 -41 -215 -39 -221 2 -5 75 39 163 98 l160 106 115 166 c63 91 193
277 288 414 95 136 172 252 170 257 -3 8 -138 93 -693 437 -99 62 -188 115
-197 118 -13 5 -27 -9 -61 -62z"/>
<path d="M2943 6072 c-80 -119 -239 -354 -353 -522 -299 -441 -705 -1043 -713
-1057 -4 -7 37 -75 96 -160 57 -81 177 -254 267 -383 90 -129 199 -287 243
-350 44 -63 117 -167 161 -230 44 -63 114 -164 156 -225 43 -60 207 -297 365
-525 158 -228 297 -427 307 -443 19 -27 19 -29 -6 -227 -26 -200 -66 -514
-171 -1345 -31 -242 -60 -469 -65 -505 -5 -36 -10 -73 -10 -82 0 -17 69 -18
1304 -18 l1303 0 7 183 c17 479 38 1028 51 1378 8 213 15 395 15 406 0 11 108
152 241 314 132 162 245 303 249 314 5 11 46 200 90 420 45 220 113 552 151
738 38 186 69 341 69 343 0 3 -72 -59 -161 -138 -89 -79 -207 -183 -263 -233
-56 -49 -166 -147 -245 -217 -79 -71 -146 -128 -150 -128 -4 0 -141 130 -305
289 l-298 288 -76 16 c-43 9 -290 62 -551 117 -260 56 -475 100 -476 98 -2 -2
58 -78 133 -169 75 -91 218 -264 317 -384 99 -121 190 -233 202 -249 11 -17
101 -244 199 -505 l179 -474 90 -100 c49 -55 85 -102 80 -104 -6 -2 -68 -34
-140 -72 l-130 -68 2 -714 2 -714 -29 195 c-16 107 -68 467 -115 799 -47 333
-90 608 -96 612 -6 3 -81 12 -167 19 -87 7 -165 16 -176 20 -14 5 41 44 228
164 135 87 246 160 246 163 0 3 -10 22 -22 42 -25 40 -293 452 -649 996 -80
121 -213 326 -298 456 l-153 237 -297 117 c-163 65 -339 135 -391 155 l-95 38
100 46 100 47 82 128 82 128 -28 131 c-16 77 -23 129 -17 125 6 -4 97 -87 201
-184 105 -97 206 -190 226 -208 l37 -31 373 91 c206 50 390 95 410 100 l37 9
17 98 c9 53 30 164 46 246 16 83 28 150 26 151 -1 1 -33 15 -72 32 -38 18
-401 181 -805 364 -404 182 -754 340 -777 350 l-43 18 -147 -217z"/>
<path d="M5349 5473 c-172 -257 -408 -610 -523 -783 -116 -173 -212 -320 -214
-326 -2 -6 97 -58 220 -117 123 -58 286 -135 363 -172 l140 -67 30 38 c16 21
163 200 324 399 162 198 336 410 385 471 50 61 158 193 240 294 123 151 146
184 135 195 -12 11 -688 473 -761 519 l-27 18 -312 -469z"/>
<path d="M6134 4818 c-229 -277 -490 -590 -578 -696 -89 -106 -161 -197 -161
-202 0 -5 109 -106 243 -225 l242 -215 348 311 c191 172 470 422 620 556 169
152 269 249 265 256 -4 7 -46 62 -93 122 -48 61 -171 219 -274 353 -103 133
-189 242 -191 242 -2 0 -191 -226 -421 -502z"/>
<path d="M4360 4764 c-157 -46 -338 -98 -402 -116 -65 -18 -114 -36 -110 -39
4 -4 117 -71 252 -148 188 -108 247 -138 256 -128 6 6 68 111 139 232 70 121
136 235 147 253 11 17 16 32 11 31 -4 -1 -136 -39 -293 -85z"/>
</g>
</svg>
